<svg width="46" height="51" viewBox="0 0 46 51" fill="none" xmlns="http://www.w3.org/2000/svg">
<path d="M41.0982 30.9879C42.1796 27.6948 42.728 24.2596 42.728 20.7643V8.97833C42.728 8.49463 42.3923 8.08075 41.932 7.99718L41.8692 7.98583C34.7541 6.69449 28.0244 4.05724 21.8672 0.147074C21.5578 -0.0494554 21.1679 -0.0489574 20.8589 0.148169C14.7447 4.04986 8.05722 6.67925 0.98236 7.96331L0.79605 7.99708C0.335761 8.08065 0 8.49453 0 8.97833V20.7643C0 27.4907 2.0111 33.9285 5.81592 39.3814C9.62074 44.8344 14.8925 48.8346 21.0615 50.9494C21.1597 50.9831 21.2619 50.9999 21.364 50.9999C21.4664 50.9999 21.5688 50.983 21.6673 50.9491L21.6796 50.9449C23.9442 50.1674 26.1121 49.12 28.1354 47.8288C30.0309 49.7874 32.6457 51 35.5291 51C41.3028 51 46 46.138 46 40.1618C46 36.3027 44.0408 32.9086 41.0982 30.9879ZM21.3639 48.9527C9.72255 44.8154 1.92469 33.5296 1.92469 20.7643V9.81156C8.82218 8.48278 15.3564 5.91166 21.3653 2.16197C27.3791 5.89732 33.9127 8.46783 40.8033 9.81007V20.7643C40.8033 23.945 40.3178 27.0722 39.3624 30.0758C38.5365 29.7383 37.6593 29.5073 36.7469 29.3974C37.6506 26.6205 38.1087 23.7228 38.1087 20.7643V12.8723C38.1087 12.4112 37.803 12.0103 37.3697 11.9034C31.945 10.5636 26.7186 8.46395 21.8358 5.66254C21.545 5.49569 21.1917 5.49609 20.9013 5.66334C16.0191 8.47541 10.7901 10.5771 5.35948 11.9097C4.92556 12.0162 4.61915 12.4173 4.61915 12.8789V20.7643C4.61915 26.2048 6.17314 31.4515 9.1132 35.9374C12.0424 40.4069 16.1549 43.8314 21.0062 45.8407C21.1209 45.8883 21.2424 45.9121 21.3637 45.9121C21.4851 45.9121 21.6065 45.8883 21.7213 45.8407C23.0887 45.2743 24.4094 44.5866 25.663 43.7921C25.9691 44.6807 26.3841 45.5161 26.8915 46.2811C25.1496 47.3691 23.2956 48.2658 21.3639 48.9527ZM25.0582 40.1618C25.0582 40.7045 25.0974 41.2379 25.1722 41.7594C23.968 42.5665 22.6908 43.2643 21.3637 43.8397C12.3478 39.9351 6.54393 30.9214 6.54393 20.7643V13.6616C11.7092 12.325 16.6908 10.3122 21.3702 7.67046C26.0482 10.3014 31.0261 12.3119 36.1841 13.6537V20.7643C36.1841 23.7171 35.6923 26.6041 34.7221 29.3556C29.3239 29.7835 25.0582 34.4668 25.0582 40.1618ZM35.5291 49.0078C30.8167 49.0078 26.9828 45.0396 26.9828 40.1618C26.9828 35.284 30.8167 31.3158 35.5291 31.3158C40.2415 31.3158 44.0753 35.2841 44.0753 40.1618C44.0753 45.0395 40.2414 49.0078 35.5291 49.0078Z" fill="#244D4D"/>
<path d="M34.5271 39.7781L32.5206 37.7012L30.1445 40.1604L34.5271 44.6967L40.9136 38.0863L38.5377 35.627L34.5271 39.7781Z" fill="#244D4D"/>
</svg>
