<svg width="58" height="61" viewBox="0 0 58 61" fill="none" xmlns="http://www.w3.org/2000/svg">
<path d="M47.2006 24.9028H41.6195V20.9473C41.6195 19.9604 40.8587 19.1602 39.9203 19.1602H1.69922C0.760797 19.1602 0 19.9604 0 20.9473V53.4886C0 54.4755 0.760797 55.2757 1.69922 55.2757H7.48563C9.33483 62.8865 19.5471 62.8814 21.3935 55.2757H36.6064C38.4556 62.8865 48.6679 62.8814 50.5143 55.2757H56.3008C57.2392 55.2757 58 54.4755 58 53.4886V36.2608C58 29.9979 53.1553 24.9028 47.2006 24.9028V24.9028ZM14.4396 57.444C12.3658 57.444 10.6787 55.6695 10.6787 53.4886C10.8852 48.2411 17.9948 48.2427 18.2006 53.4886C18.2006 55.6695 16.5133 57.444 14.4396 57.444V57.444ZM38.2211 48.4793C37.4525 49.3845 36.889 50.4854 36.6064 51.7013H21.3935C19.5443 44.0906 9.332 44.0957 7.48563 51.7013H3.39844V22.7343H38.2211V48.4793ZM43.5604 57.444C41.4865 57.444 39.7994 55.6695 39.7994 53.4886C40.006 48.2411 47.1156 48.2427 47.3213 53.4886C47.3213 55.6695 45.6342 57.444 43.5604 57.444ZM54.6016 51.7014H50.5162C49.7513 48.4094 46.9229 45.9589 43.5605 45.9589H41.6195V28.477H45.5013V40.0893C45.5013 41.0762 46.2621 41.8764 47.2006 41.8764H54.6016V51.7014ZM54.6016 38.3021H48.8998V28.6839C52.1643 29.4937 54.6016 32.5837 54.6016 36.2608V38.3021Z" fill="#244D4D"/>
</svg>
