<svg width="54" height="59" viewBox="0 0 54 59" fill="none" xmlns="http://www.w3.org/2000/svg">
<g filter="url(#filter0_d)">
<path d="M49.8635 44.9889L42.205 32.0149C42.4801 31.7015 42.854 31.4696 43.2902 31.369C44.4966 31.091 45.497 30.3051 46.0347 29.2129C46.5725 28.1207 46.5769 26.8658 46.047 25.77C45.6414 24.9313 45.8732 23.9379 46.6107 23.3544C47.5743 22.5919 48.1269 21.4594 48.1269 20.2472C48.1269 19.035 47.5743 17.9024 46.6107 17.14C45.8732 16.5565 45.6414 15.5631 46.047 14.7244C46.577 13.6286 46.5725 12.3736 46.0347 11.2814C45.497 10.1893 44.4966 9.40336 43.2901 9.12535C42.3669 8.91259 41.7173 8.11604 41.7107 7.18821C41.7022 5.976 41.1413 4.84726 40.1723 4.09144C39.2034 3.33563 37.9533 3.05205 36.7432 3.31362C35.8168 3.51363 34.8784 3.07167 34.4608 2.23857C33.9153 1.15007 32.9094 0.371045 31.701 0.101311C30.4925 -0.168523 29.2407 0.10659 28.2663 0.85573C27.5207 1.42916 26.479 1.42916 25.7332 0.85573C24.7588 0.10659 23.507 -0.168324 22.2986 0.101311C21.0902 0.371045 20.0843 1.15007 19.5388 2.23857C19.1212 3.07167 18.1824 3.51393 17.2565 3.31362C16.0462 3.05225 14.7963 3.33563 13.8274 4.09144C12.8584 4.84726 12.2977 5.976 12.289 7.18821C12.2824 8.11594 11.6328 8.91259 10.7095 9.12535C9.5031 9.40336 8.50274 10.1893 7.96504 11.2814C7.42723 12.3736 7.42285 13.6286 7.95271 14.7243C8.35834 15.563 8.12655 16.5564 7.38904 17.1399C6.42544 17.9024 5.87277 19.0349 5.87277 20.2471C5.87277 21.4593 6.42544 22.5919 7.38904 23.3543C8.12655 23.9378 8.35834 24.9312 7.95271 25.7699C7.42275 26.8658 7.42723 28.1207 7.96504 29.2129C8.50274 30.3051 9.5031 31.091 10.7096 31.369C11.1459 31.4695 11.5197 31.7015 11.7948 32.0149L4.13642 44.9889C3.9302 45.3384 3.95983 45.7749 4.21138 46.0946C4.46302 46.4142 4.88687 46.5538 5.28496 46.4483L10.6189 45.0329L12.0328 50.2587C12.1383 50.6488 12.4739 50.9379 12.8828 50.9912C12.9279 50.9971 12.9729 51 13.0176 51C13.3779 51 13.7157 50.8127 13.8993 50.502L20.434 39.4316C20.9516 39.9002 21.5898 40.2348 22.2988 40.3931C23.507 40.6626 24.759 40.3878 25.7335 39.6387C26.4792 39.0653 27.5209 39.0653 28.2666 39.6387C28.9958 40.1993 29.8802 40.4944 30.7856 40.4944C31.0901 40.4944 31.3971 40.461 31.7012 40.3931C32.4102 40.2348 33.0485 39.9002 33.566 39.4316L40.1008 50.502C40.2843 50.8128 40.6222 51 40.9824 51C41.027 51 41.0721 50.9971 41.1172 50.9912C41.5261 50.9379 41.8617 50.6487 41.9673 50.2587L43.3811 45.0329L48.7151 46.4483C49.1132 46.5541 49.5371 46.4142 49.7886 46.0946C50.0402 45.7749 50.0698 45.3384 49.8635 44.9889V44.9889ZM13.3701 47.4142L12.3259 43.5544C12.2564 43.298 12.0854 43.0792 11.8506 42.9466C11.6156 42.8139 11.3365 42.7785 11.0748 42.8479L7.13505 43.8933L12.5584 34.7058C12.815 35.3636 13.2474 35.9504 13.8276 36.403C14.7966 37.1588 16.0466 37.4424 17.2567 37.1808C17.9401 37.0332 18.6297 37.236 19.1123 37.6867L13.3701 47.4142ZM31.2479 38.451C30.6416 38.5861 30.014 38.4483 29.5253 38.0727C28.7818 37.5009 27.891 37.2152 27 37.2152C26.1091 37.2152 25.2179 37.501 24.4746 38.0727C23.986 38.4484 23.3583 38.5863 22.752 38.451C22.1459 38.3157 21.6414 37.925 21.3678 37.379C20.5354 35.718 18.6639 34.8366 16.8172 35.2356C16.2102 35.3668 15.5834 35.2245 15.0974 34.8454C14.6114 34.4663 14.3301 33.9003 14.3258 33.2923C14.3126 31.4425 13.0176 29.8543 11.1767 29.43C10.5716 29.2906 10.0699 28.8964 9.80016 28.3486C9.5305 27.8008 9.52826 27.1715 9.79405 26.6217C10.6027 24.9495 10.1405 22.9691 8.67006 21.8057C8.18674 21.4233 7.90964 20.8552 7.90964 20.2472C7.90964 19.6392 8.18684 19.0712 8.67017 18.6888C10.1405 17.5254 10.6028 15.5449 9.79405 13.8726C9.52826 13.323 9.5305 12.6936 9.80027 12.1458C10.0699 11.598 10.5717 11.2038 11.1767 11.0644C13.0176 10.6402 14.3126 9.05194 14.3258 7.20215C14.3301 6.59416 14.6113 6.02799 15.0974 5.64899C15.5834 5.26989 16.2101 5.12755 16.8173 5.25883C18.6638 5.65756 20.5354 4.77644 21.3678 3.1154C21.6414 2.56946 22.1459 2.1787 22.752 2.04344C23.3582 1.90827 23.986 2.04603 24.4746 2.42174C25.9615 3.56512 28.0384 3.56512 29.5253 2.42174C30.0141 2.04603 30.6417 1.90827 31.2479 2.04344C31.854 2.1787 32.3585 2.56946 32.6321 3.1154C33.4646 4.77644 35.3359 5.65756 37.1827 5.25883C37.7895 5.12745 38.4166 5.26989 38.9025 5.64899C39.3885 6.02809 39.6698 6.59416 39.6742 7.20215C39.6873 9.05194 40.9823 10.6402 42.8232 11.0644C43.4283 11.2038 43.93 11.598 44.1998 12.1458C44.4694 12.6937 44.4717 13.323 44.2059 13.8727C43.3973 15.5449 43.8594 17.5254 45.3299 18.6888C45.8132 19.0712 46.0903 19.6392 46.0903 20.2472C46.0903 20.8552 45.8131 21.4233 45.3298 21.8057C43.8594 22.9691 43.3972 24.9495 44.2059 26.6218C44.4717 27.1715 44.4694 27.8009 44.1996 28.3486C43.93 28.8964 43.4282 29.2906 42.8232 29.43C40.9823 29.8543 39.6873 31.4425 39.6742 33.2923C39.6698 33.9003 39.3886 34.4664 38.9025 34.8454C38.4166 35.2245 37.7897 35.3667 37.1826 35.2356C35.3359 34.8365 33.4646 35.718 32.6321 37.379C32.3585 37.925 31.854 38.3156 31.2479 38.451V38.451ZM42.9251 42.8479C42.6633 42.7785 42.3842 42.814 42.1493 42.9466C41.9145 43.0793 41.7434 43.298 41.6741 43.5544L40.6298 47.4142L34.8878 37.6867C35.3705 37.2359 36.06 37.033 36.7432 37.1808C37.9536 37.4423 39.2034 37.1588 40.1723 36.403C40.7525 35.9505 41.1849 35.3636 41.4416 34.7058L46.8649 43.8933L42.9251 42.8479Z" fill="#244D4D"/>
<path d="M31.8451 27.7798C32.0552 27.7798 32.2653 27.7163 32.4437 27.5895C32.7998 27.3365 32.9494 26.8884 32.8146 26.4787L31.2093 21.5972L35.4427 18.5549C35.7974 18.3 35.9445 17.851 35.8075 17.4419C35.6703 17.0328 35.2799 16.7562 34.8398 16.7562H29.6012L27.9676 11.888C27.8303 11.479 27.4401 11.2025 27.0001 11.2025C26.56 11.2025 26.1697 11.479 26.0325 11.888L24.3989 16.7562H19.1603C18.7202 16.7562 18.3297 17.0328 18.1927 17.4419C18.0555 17.851 18.2026 18.3 18.5575 18.5549L22.7908 21.5972L21.1855 26.4787C21.0508 26.8885 21.2004 27.3365 21.5564 27.5895C21.9125 27.8425 22.3944 27.8431 22.7512 27.5912L27.0003 24.5905L31.2494 27.5912C31.427 27.7169 31.6359 27.7798 31.8451 27.7798V27.7798ZM27.596 22.5544C27.418 22.4287 27.2089 22.3659 26.9999 22.3659C26.7908 22.3659 26.5817 22.4287 26.4037 22.5544L24.0742 24.1995L24.954 21.5242C25.0881 21.1163 24.9406 20.6702 24.5875 20.4165L22.2661 18.7482H25.1363C25.5764 18.7482 25.9667 18.4716 26.1039 18.0627L26.9999 15.3925L27.8958 18.0627C28.0331 18.4716 28.4234 18.7482 28.8634 18.7482H31.7336L29.4122 20.4165C29.0591 20.6702 28.9116 21.1162 29.0457 21.5242L29.9255 24.1995L27.596 22.5544Z" fill="#244D4D"/>
<path d="M41.2572 20.2472C41.2572 12.558 34.8613 6.30232 26.9998 6.30232C19.1383 6.30232 12.7425 12.558 12.7425 20.2472C12.7425 26.0968 16.5183 31.3665 22.1383 33.3601C22.6669 33.5476 23.2511 33.2805 23.4429 32.7634C23.6347 32.2462 23.3615 31.675 22.8328 31.4873C18.0157 29.7786 14.7793 25.2615 14.7793 20.2472C14.7793 13.6565 20.2615 8.29445 26.9999 8.29445C33.7384 8.29445 39.2205 13.6565 39.2205 20.2472C39.2205 25.2618 35.9838 29.779 31.1664 31.4876C30.6377 31.6752 30.3645 32.2464 30.5562 32.7636C30.7064 33.1686 31.0972 33.4204 31.5136 33.4204C31.6289 33.4204 31.7461 33.401 31.8608 33.3604C37.481 31.367 41.2572 26.0972 41.2572 20.2472V20.2472Z" fill="#244D4D"/>
<path d="M26.9999 32.1998C26.732 32.1998 26.4693 32.3064 26.2798 32.4917C26.0904 32.677 25.9815 32.934 25.9815 33.1959C25.9815 33.4579 26.0904 33.7149 26.2798 33.9002C26.4693 34.0854 26.732 34.192 26.9999 34.192C27.2677 34.192 27.5305 34.0854 27.7199 33.9002C27.9093 33.7149 28.0183 33.4579 28.0183 33.1959C28.0183 32.934 27.9093 32.677 27.7199 32.4917C27.5305 32.3064 27.2677 32.1998 26.9999 32.1998Z" fill="#244D4D"/>
</g>
<defs>
<filter id="filter0_d" x="0" y="0" width="54" height="59" filterUnits="userSpaceOnUse" color-interpolation-filters="sRGB">
<feFlood flood-opacity="0" result="BackgroundImageFix"/>
<feColorMatrix in="SourceAlpha" type="matrix" values="0 0 0 0 0 0 0 0 0 0 0 0 0 0 0 0 0 0 127 0"/>
<feOffset dy="4"/>
<feGaussianBlur stdDeviation="2"/>
<feColorMatrix type="matrix" values="0 0 0 0 0 0 0 0 0 0 0 0 0 0 0 0 0 0 0.25 0"/>
<feBlend mode="normal" in2="BackgroundImageFix" result="effect1_dropShadow"/>
<feBlend mode="normal" in="SourceGraphic" in2="effect1_dropShadow" result="shape"/>
</filter>
</defs>
</svg>
