<svg width="40" height="38" viewBox="0 0 40 38" fill="none" xmlns="http://www.w3.org/2000/svg">
<g clip-path="url(#clip0)">
<path fill-rule="evenodd" clip-rule="evenodd" d="M37.6582 13.297L28.8196 4.9003L29.9245 3.85064C30.532 3.27346 31.5265 3.27338 32.1341 3.85064L38.763 10.1481C39.3707 10.7255 39.3707 11.67 38.763 12.2473L37.6582 13.297Z" fill="#DAD0D3"/>
<path fill-rule="evenodd" clip-rule="evenodd" d="M26.6061 7.0022L28.8155 4.90328L37.6527 13.2987L35.4433 15.3976L26.6061 7.0022Z" fill="#6D91AC"/>
<path fill-rule="evenodd" clip-rule="evenodd" d="M26.6098 6.99957L35.4484 15.3963L30.4768 20.1193C30.173 20.4079 29.6758 20.4079 29.372 20.1193L27.7148 18.5449C28.5766 17.7262 28.982 16.6926 28.6084 15.6457C28.453 15.2101 28.1629 14.7723 27.7148 14.3466C27.2667 13.9209 26.8058 13.6453 26.3474 13.4977C25.2452 13.1428 24.1573 13.5279 23.2955 14.3466L21.6383 12.7723C21.3344 12.4836 21.3344 12.0112 21.6383 11.7227L26.6098 6.99957Z" fill="#DAD0D3"/>
<path fill-rule="evenodd" clip-rule="evenodd" d="M26.3474 13.4976C26.8058 13.6452 27.2666 13.9209 27.7148 14.3466C28.1629 14.7723 28.453 15.2101 28.6082 15.6457L13.4064 30.7675C13.3021 30.0782 12.9708 29.4138 12.4126 28.8836C11.8545 28.3533 11.1552 28.0386 10.4296 27.9395L26.3474 13.4976Z" fill="#6D91AC"/>
<path fill-rule="evenodd" clip-rule="evenodd" d="M12.4126 28.8836C12.9708 29.4139 13.3021 30.0782 13.4064 30.7675C13.5586 31.7734 13.2273 32.8327 12.4126 33.6067C11.0397 34.9109 8.81382 34.9109 7.44096 33.6067C6.06802 32.3025 6.06802 30.1878 7.44096 28.8836C8.25563 28.1096 9.37068 27.795 10.4296 27.9395C11.1552 28.0386 11.8544 28.3533 12.4126 28.8836Z" fill="#DAD0D3"/>
<path fill-rule="evenodd" clip-rule="evenodd" d="M2.34261 13.2979L11.1813 4.9012L10.0764 3.85162C9.46879 3.27443 8.47436 3.27436 7.86671 3.85162L1.23771 10.1491C0.630072 10.7264 0.630072 11.671 1.23771 12.2483L2.34261 13.2979Z" fill="#DAD0D3"/>
<path fill-rule="evenodd" clip-rule="evenodd" d="M2.34155 13.2962L11.1788 4.90081L13.3882 6.99973L4.55094 15.3951L2.34155 13.2962Z" fill="#6D91AC"/>
<path fill-rule="evenodd" clip-rule="evenodd" d="M13.391 6.99963L4.55237 15.3963L9.52398 20.1193C9.8278 20.4079 10.325 20.4079 10.6288 20.1193L12.286 18.5449C11.4242 17.7262 11.0188 16.6926 11.3924 15.6456C11.5478 15.2101 11.8379 14.7723 12.286 14.3466C12.7341 13.9209 13.195 13.6453 13.6534 13.4976C14.7556 13.1427 15.8435 13.5278 16.7053 14.3466L18.3625 12.7722C18.6664 12.4836 18.6664 12.0112 18.3625 11.7227L13.391 6.99963Z" fill="#DAD0D3"/>
<path fill-rule="evenodd" clip-rule="evenodd" d="M13.6534 13.4976C13.195 13.6452 12.7341 13.9208 12.286 14.3465C11.8379 14.7722 11.5477 15.21 11.3926 15.6456L26.5944 30.7674C26.6987 30.0781 27.0299 29.4138 27.5881 28.8835C28.1464 28.3532 28.8456 28.0385 29.5712 27.9395L13.6534 13.4976Z" fill="#6D91AC"/>
<path fill-rule="evenodd" clip-rule="evenodd" d="M27.5881 28.8836C27.0299 29.4139 26.6987 30.0782 26.5944 30.7675C26.4422 31.7734 26.7735 32.8327 27.5881 33.6067C28.9611 34.9109 31.187 34.9109 32.5598 33.6067C33.9328 32.3025 33.9328 30.1878 32.5598 28.8836C31.7452 28.1096 30.6301 27.795 29.5712 27.9395C28.8456 28.0386 28.1463 28.3533 27.5881 28.8836Z" fill="#DAD0D3"/>
<path d="M29.5484 30.6961C29.2291 30.9718 29.2058 31.441 29.496 31.7444C29.6501 31.9054 29.8618 31.9871 30.0743 31.9871C30.2619 31.9871 30.4501 31.9234 30.5998 31.794C30.9191 31.5183 30.9427 31.0489 30.6524 30.7456C30.3622 30.4423 29.868 30.4199 29.5488 30.6957L29.5484 30.6961Z" fill="black"/>
<path d="M27.1623 19.0698L28.8195 20.6441C29.1141 20.9239 29.5064 21.078 29.9244 21.078C30.3423 21.078 30.7347 20.9239 31.0292 20.6441L39.3154 12.7723C39.7568 12.3529 40 11.7937 40 11.1979C40 10.602 39.7569 10.0429 39.3154 9.62348L32.6864 3.32593C31.7726 2.45781 30.2858 2.45804 29.3719 3.32593L21.0857 11.1978C20.4766 11.7766 20.4766 12.7183 21.0858 13.297L22.743 14.8714C22.9452 15.0634 23.2306 15.1273 23.4889 15.0649L20.0004 18.2299L16.5117 15.0647C16.5746 15.08 16.6394 15.0888 16.7053 15.0888C16.9125 15.0888 17.1113 15.0105 17.2578 14.8714L18.915 13.297C19.5241 12.7183 19.5242 11.7766 18.915 11.1978L10.6288 3.32593C10.1874 2.9066 9.59886 2.67564 8.9716 2.67564C8.34435 2.67564 7.75577 2.90653 7.31437 3.32593L0.685298 9.62341C-0.228433 10.4915 -0.228433 11.904 0.685298 12.7722L8.97153 20.6441C9.27613 20.9334 9.67628 21.0781 10.0763 21.0781C10.4764 21.0781 10.8766 20.9334 11.1812 20.6441L12.8384 19.0697C12.9849 18.9305 13.0672 18.7417 13.0672 18.5449C13.0672 18.4822 13.058 18.4206 13.0419 18.3609L16.2923 21.5942L10.1459 27.1706C8.97371 27.1142 7.78171 27.5101 6.88845 28.3588C6.07682 29.1298 5.62996 30.1548 5.62996 31.2452C5.62996 32.3355 6.0769 33.3606 6.88845 34.1316C7.72624 34.9275 8.8263 35.3253 9.92674 35.3253C11.027 35.3253 12.1274 34.9273 12.965 34.1316C13.7766 33.3606 14.2234 32.3356 14.2234 31.2452C14.2234 31.1749 14.2214 31.1047 14.2177 31.035L20.0004 25.2828L25.783 31.0349C25.7793 31.1047 25.7773 31.1748 25.7773 31.2452C25.7773 32.3355 26.2242 33.3606 27.0357 34.1315C27.8734 34.9273 28.9737 35.3252 30.074 35.3252C31.1743 35.3252 32.2746 34.9273 33.1123 34.1315C33.9238 33.3606 34.3707 32.3355 34.3707 31.2452C34.3707 30.1548 33.9238 29.1298 33.1123 28.3587C32.219 27.5101 31.027 27.1143 29.8549 27.1706L23.7085 21.5942L26.9588 18.3609C26.9427 18.4206 26.9335 18.4822 26.9335 18.5449C26.9335 18.7418 27.0158 18.9306 27.1623 19.0698V19.0698ZM28.8195 5.94995L36.5534 13.297L35.4485 14.3467L27.7147 6.99961L28.8195 5.94995ZM31.5817 4.37551L38.2106 10.6731C38.3569 10.8121 38.4375 10.9984 38.4375 11.1978C38.4375 11.3971 38.3569 11.5836 38.2106 11.7226L37.6582 12.2474L29.9244 4.9003L30.4768 4.37551C30.7814 4.08629 31.277 4.08614 31.5817 4.37551ZM22.1906 12.2474L26.6098 8.04919L34.3436 15.3962L29.9244 19.5945L28.7776 18.505C29.9229 17.0099 29.7528 15.2332 28.2671 13.8217C26.7813 12.4103 24.9111 12.2485 23.3372 13.3368L22.1906 12.2474ZM1.7902 10.6731L8.41919 4.37551C8.56552 4.2365 8.76169 4.15998 8.9716 4.15998C9.18152 4.15998 9.37769 4.2365 9.52401 4.37551L10.0764 4.9003L2.34268 12.2474L1.79027 11.7226C1.48559 11.4333 1.48559 10.9624 1.7902 10.6731V10.6731ZM10.0764 19.5945L5.65722 15.3963L7.03844 14.0842C7.34351 13.7943 7.34351 13.3244 7.03844 13.0345C6.73337 12.7448 6.23869 12.7448 5.93354 13.0345L4.55232 14.3467L3.44743 13.297L11.1812 5.94995L12.2861 6.99968L10.9052 8.31147C10.6001 8.60129 10.6001 9.07123 10.9052 9.36112C11.0578 9.50599 11.2577 9.5785 11.4576 9.5785C11.6576 9.5785 11.8576 9.50599 12.0101 9.36112L13.391 8.04926L17.8101 12.2474L16.6632 13.337C16.0359 12.9035 15.3506 12.6606 14.6491 12.6272C13.6154 12.5784 12.6079 12.9911 11.7336 13.8219C10.2479 15.2333 10.0778 17.0101 11.2231 18.5052L10.0764 19.5945ZM11.8601 33.0819C10.7941 34.0947 9.05934 34.0947 7.99327 33.0819C7.47687 32.5913 7.19242 31.939 7.19242 31.2452C7.19242 30.5512 7.47687 29.8989 7.99327 29.4084C8.5263 28.902 9.22652 28.6488 9.92666 28.6488C10.6269 28.6488 11.327 28.902 11.8601 29.4084C12.3766 29.8989 12.661 30.5513 12.661 31.2452C12.661 31.939 12.3766 32.5913 11.8601 33.0819ZM13.7399 29.3612C13.5395 28.9962 13.2801 28.6582 12.965 28.3588C12.6463 28.056 12.2893 27.8111 11.909 27.6236L17.3715 22.6677L18.9202 24.2082L13.7399 29.3612ZM32.8083 31.2451C32.8083 31.939 32.5238 32.5913 32.0074 33.0819C30.9414 34.0947 29.2067 34.0947 28.1406 33.0819C27.6242 32.5913 27.3397 31.939 27.3397 31.2452C27.3397 30.5513 27.6242 29.8989 28.1406 29.4084C29.2067 28.3956 30.9414 28.3956 32.0075 29.4084C32.5239 29.899 32.8083 30.5513 32.8083 31.2451ZM27.0357 28.3588C26.7206 28.6582 26.4612 28.9962 26.2608 29.3612L12.3215 15.4951C12.4454 15.2926 12.6145 15.0842 12.8385 14.8714C13.0544 14.6663 13.2735 14.5027 13.4949 14.3801L28.0918 27.6236C27.7114 27.8111 27.3545 28.056 27.0357 28.3588V28.3588ZM21.1315 19.2562L26.5058 14.3802C26.719 14.4979 26.9384 14.6587 27.1624 14.8714C27.3863 15.0842 27.5555 15.2926 27.6794 15.4951L22.5787 20.5691L21.1315 19.2562Z" fill="black"/>
<path d="M9.37407 30.7201C9.06899 31.0099 9.06899 31.4799 9.37407 31.7698L9.37446 31.7702C9.52696 31.915 9.72681 31.9875 9.92665 31.9875C10.1266 31.9875 10.3266 31.9149 10.4791 31.7699C10.7842 31.4801 10.7841 31.01 10.479 30.7201C10.1739 30.4304 9.67923 30.4304 9.37407 30.7201V30.7201Z" fill="black"/>
<path d="M8.97216 10.4557H8.97161C8.54013 10.4557 8.19067 10.788 8.19067 11.1979C8.19067 11.6077 8.54067 11.9401 8.97216 11.9401C9.40364 11.9401 9.75341 11.6077 9.75341 11.1979C9.75341 10.788 9.40364 10.4557 8.97216 10.4557Z" fill="black"/>
</g>
<defs>
<clipPath id="clip0">
<rect width="40" height="38" fill="white"/>
</clipPath>
</defs>
</svg>
