<svg width="101" height="132" viewBox="0 0 101 132" fill="none" xmlns="http://www.w3.org/2000/svg">
<path d="M13.2969 124.07H8.16016L7.18359 127H4.06836L9.36133 112.781H12.0762L17.3984 127H14.2832L13.2969 124.07ZM8.95117 121.697H12.5059L10.7188 116.375L8.95117 121.697ZM29.3125 112.781V122.146C29.3125 123.702 28.8242 124.933 27.8477 125.838C26.8776 126.743 25.5495 127.195 23.8633 127.195C22.2031 127.195 20.8848 126.756 19.9082 125.877C18.9316 124.998 18.4336 123.79 18.4141 122.254V112.781H21.3438V122.166C21.3438 123.097 21.5651 123.777 22.0078 124.207C22.457 124.63 23.0755 124.842 23.8633 124.842C25.5104 124.842 26.347 123.976 26.373 122.244V112.781H29.3125ZM42.418 115.154H38.0625V127H35.1328V115.154H30.8359V112.781H42.418V115.154ZM55.5039 120.213C55.5039 121.613 55.2565 122.84 54.7617 123.895C54.2669 124.949 53.5573 125.763 52.6328 126.336C51.7148 126.909 50.6602 127.195 49.4688 127.195C48.2904 127.195 47.2389 126.912 46.3145 126.346C45.39 125.779 44.6738 124.972 44.166 123.924C43.6582 122.869 43.401 121.658 43.3945 120.291V119.588C43.3945 118.188 43.6452 116.958 44.1465 115.896C44.6543 114.829 45.3672 114.012 46.2852 113.445C47.2096 112.872 48.2643 112.586 49.4492 112.586C50.6341 112.586 51.6855 112.872 52.6035 113.445C53.528 114.012 54.2409 114.829 54.7422 115.896C55.25 116.958 55.5039 118.185 55.5039 119.578V120.213ZM52.5352 119.568C52.5352 118.077 52.2682 116.945 51.7344 116.17C51.2005 115.395 50.4388 115.008 49.4492 115.008C48.4661 115.008 47.7077 115.392 47.1738 116.16C46.64 116.922 46.3698 118.042 46.3633 119.52V120.213C46.3633 121.665 46.6302 122.791 47.1641 123.592C47.6979 124.393 48.4661 124.793 49.4688 124.793C50.4518 124.793 51.207 124.409 51.7344 123.641C52.2617 122.866 52.5286 121.74 52.5352 120.262V119.568ZM60.5039 124.646H67.6719V127H56.8418V125.281L63.873 115.154H56.8516V112.781H67.5156V114.461L60.5039 124.646ZM80.9531 120.213C80.9531 121.613 80.7057 122.84 80.2109 123.895C79.7161 124.949 79.0065 125.763 78.082 126.336C77.1641 126.909 76.1094 127.195 74.918 127.195C73.7396 127.195 72.6882 126.912 71.7637 126.346C70.8392 125.779 70.123 124.972 69.6152 123.924C69.1074 122.869 68.8503 121.658 68.8438 120.291V119.588C68.8438 118.188 69.0944 116.958 69.5957 115.896C70.1035 114.829 70.8164 114.012 71.7344 113.445C72.6589 112.872 73.7135 112.586 74.8984 112.586C76.0833 112.586 77.1348 112.872 78.0527 113.445C78.9772 114.012 79.6901 114.829 80.1914 115.896C80.6992 116.958 80.9531 118.185 80.9531 119.578V120.213ZM77.9844 119.568C77.9844 118.077 77.7174 116.945 77.1836 116.17C76.6497 115.395 75.888 115.008 74.8984 115.008C73.9154 115.008 73.1569 115.392 72.623 116.16C72.0892 116.922 71.819 118.042 71.8125 119.52V120.213C71.8125 121.665 72.0794 122.791 72.6133 123.592C73.1471 124.393 73.9154 124.793 74.918 124.793C75.901 124.793 76.6562 124.409 77.1836 123.641C77.7109 122.866 77.9779 121.74 77.9844 120.262V119.568ZM94.6445 127H91.7148L86.0117 117.645V127H83.082V112.781H86.0117L91.7246 122.156V112.781H94.6445V127Z" fill="#ADADAD"/>
<path d="M57.9171 44.6572C55.1928 44.6572 52.9766 46.8296 52.9766 49.4999C52.9766 52.1702 55.1928 54.3426 57.9171 54.3426C60.6413 54.3426 62.8576 52.1702 62.8576 49.4999C62.8576 46.8296 60.6413 44.6572 57.9171 44.6572Z" fill="#ADADAD"/>
<path d="M61.1899 29.9775V38.7102C63.7272 39.4508 65.8991 41.0284 67.3709 43.1165L75.8446 40.4176C72.9628 34.9741 67.5756 31.0022 61.1899 29.9775Z" fill="#ADADAD"/>
<path d="M77.8713 46.5176L69.395 49.2173C69.3974 49.3116 69.4025 49.4054 69.4025 49.5001C69.4025 52.0713 68.5167 54.442 67.0312 56.3395L72.2648 63.3998C75.8706 59.8242 78.1005 54.9129 78.1005 49.5001C78.1005 48.4866 78.022 47.4906 77.8713 46.5176Z" fill="#ADADAD"/>
<path d="M57.9173 7.27051H18.1069C16.2997 7.27051 14.8346 8.70659 14.8346 10.478C14.8346 12.2493 16.2997 13.6854 18.1069 13.6854H35.1163C31.5276 15.8884 28.2919 18.5938 25.5134 21.7021H3.27225C1.46509 21.7023 0 23.1386 0 24.9099C0 26.6813 1.46509 28.1174 3.27225 28.1174H20.7796C17.0043 34.3931 14.8344 41.7025 14.8344 49.5001C14.8344 58.5733 17.7695 66.9872 22.7568 73.8783H13.4723C11.6651 73.8783 10.2 75.3144 10.2 77.0858C10.2 78.8571 11.6651 80.2932 13.4723 80.2932H28.4682C30.5086 82.1692 32.7347 83.8526 35.1163 85.3146H3.60977C1.80262 85.3146 0.337522 86.7506 0.337522 88.522C0.337522 90.2934 1.80262 91.7295 3.60977 91.7295H57.9173C81.6735 91.7295 101 72.7852 101 49.4999C101 26.2145 81.6733 7.27051 57.9173 7.27051ZM73.8126 70.5492C73.7524 70.5991 73.6927 70.6494 73.6278 70.6952C73.5548 70.7472 73.48 70.7958 73.4045 70.841C69.0323 73.8982 63.6854 75.6988 57.9173 75.6988C52.1492 75.6988 46.8025 73.8982 42.4301 70.841C42.3544 70.7958 42.2798 70.7472 42.2068 70.6952C42.1421 70.649 42.0824 70.5987 42.022 70.5492C35.454 65.7713 31.1891 58.115 31.1891 49.5001C31.1891 35.054 43.1794 23.3012 57.9173 23.3012C72.6552 23.3012 84.6455 35.054 84.6455 49.5001C84.6455 58.1152 80.3808 65.7713 73.8126 70.5492Z" fill="#ADADAD"/>
<path d="M39.9902 40.4176L48.4638 43.1165C49.936 41.0286 52.1077 39.451 54.6449 38.7102V29.9775C48.2594 31.0023 42.8723 34.9741 39.9902 40.4176Z" fill="#ADADAD"/>
<path d="M61.7401 60.1143C60.5435 60.5296 59.2576 60.7579 57.9173 60.7579C56.5775 60.7579 55.2911 60.5296 54.0945 60.1143L48.8599 67.1761C51.5853 68.5233 54.6622 69.2836 57.9173 69.2836C61.1724 69.2836 64.2494 68.5235 66.9748 67.1761L61.7401 60.1143Z" fill="#ADADAD"/>
<path d="M46.4318 49.5002C46.4318 49.4054 46.4366 49.3116 46.4389 49.2173L37.9626 46.5176C37.8119 47.4906 37.7334 48.4866 37.7334 49.5002C37.7334 54.9131 39.9635 59.8244 43.5693 63.4002L48.8028 56.3395C47.3176 54.4422 46.4318 52.0713 46.4318 49.5002Z" fill="#ADADAD"/>
</svg>
