<svg width="90" height="115" viewBox="0 0 90 115" fill="none" xmlns="http://www.w3.org/2000/svg">
<path d="M10.8242 104.189H5.19922V110H2.26953V95.7812H11.5273V98.1543H5.19922V101.826H10.8242V104.189ZM19.3789 107.07H14.2422L13.2656 110H10.1504L15.4434 95.7812H18.1582L23.4805 110H20.3652L19.3789 107.07ZM15.0332 104.697H18.5879L16.8008 99.375L15.0332 104.697ZM32.1816 106.27C32.1816 105.716 31.9863 105.293 31.5957 105C31.2051 104.701 30.502 104.388 29.4863 104.062C28.4707 103.73 27.6667 103.405 27.0742 103.086C25.4596 102.214 24.6523 101.038 24.6523 99.5605C24.6523 98.7923 24.8672 98.1087 25.2969 97.5098C25.7331 96.9043 26.3548 96.4323 27.1621 96.0938C27.9759 95.7552 28.8874 95.5859 29.8965 95.5859C30.9121 95.5859 31.8171 95.7715 32.6113 96.1426C33.4056 96.5072 34.0208 97.0247 34.457 97.6953C34.8997 98.3659 35.1211 99.1276 35.1211 99.9805H32.1914C32.1914 99.3294 31.9863 98.8249 31.5762 98.4668C31.166 98.1022 30.5898 97.9199 29.8477 97.9199C29.1315 97.9199 28.5749 98.0729 28.1777 98.3789C27.7806 98.6784 27.582 99.0755 27.582 99.5703C27.582 100.033 27.8132 100.42 28.2754 100.732C28.7441 101.045 29.431 101.338 30.3359 101.611C32.0026 102.113 33.2168 102.734 33.9785 103.477C34.7402 104.219 35.1211 105.143 35.1211 106.25C35.1211 107.48 34.6556 108.447 33.7246 109.15C32.7936 109.847 31.5404 110.195 29.9648 110.195C28.8711 110.195 27.875 109.997 26.9766 109.6C26.0781 109.196 25.3913 108.646 24.916 107.949C24.4473 107.253 24.2129 106.445 24.2129 105.527H27.1523C27.1523 107.096 28.0898 107.881 29.9648 107.881C30.6615 107.881 31.2051 107.741 31.5957 107.461C31.9863 107.174 32.1816 106.777 32.1816 106.27ZM47.8164 98.1543H43.4609V110H40.5312V98.1543H36.2344V95.7812H47.8164V98.1543ZM60.3848 105.264C60.2741 106.794 59.7077 107.998 58.6855 108.877C57.6699 109.756 56.3288 110.195 54.6621 110.195C52.8392 110.195 51.4036 109.583 50.3555 108.359C49.3138 107.129 48.793 105.443 48.793 103.301V102.432C48.793 101.064 49.0339 99.86 49.5156 98.8184C49.9974 97.7767 50.6842 96.9792 51.5762 96.4258C52.4746 95.8659 53.5163 95.5859 54.7012 95.5859C56.3418 95.5859 57.6634 96.0254 58.666 96.9043C59.6686 97.7832 60.248 99.0169 60.4043 100.605H57.4746C57.403 99.6875 57.1458 99.0234 56.7031 98.6133C56.2669 98.1966 55.5996 97.9883 54.7012 97.9883C53.7246 97.9883 52.9922 98.3398 52.5039 99.043C52.0221 99.7396 51.7747 100.824 51.7617 102.295V103.369C51.7617 104.906 51.9928 106.029 52.4551 106.738C52.9238 107.448 53.6595 107.803 54.6621 107.803C55.5671 107.803 56.2409 107.598 56.6836 107.188C57.1328 106.771 57.39 106.13 57.4551 105.264H60.3848ZM70.3359 107.07H65.1992L64.2227 110H61.1074L66.4004 95.7812H69.1152L74.4375 110H71.3223L70.3359 107.07ZM65.9902 104.697H69.5449L67.7578 99.375L65.9902 104.697ZM81.0293 104.795H78.6953V110H75.7656V95.7812H81.0488C82.7285 95.7812 84.0241 96.1556 84.9355 96.9043C85.847 97.653 86.3027 98.7109 86.3027 100.078C86.3027 101.048 86.0911 101.859 85.668 102.51C85.2513 103.154 84.6165 103.669 83.7637 104.053L86.8398 109.863V110H83.6953L81.0293 104.795ZM78.6953 102.422H81.0586C81.7943 102.422 82.3639 102.236 82.7676 101.865C83.1712 101.488 83.373 100.97 83.373 100.312C83.373 99.6419 83.181 99.1146 82.7969 98.7305C82.4193 98.3464 81.8366 98.1543 81.0488 98.1543H78.6953V102.422Z" fill="#ADADAD"/>
<g clip-path="url(#clip0)">
<path d="M14.4056 20.8356C14.8554 20.8356 15.3051 20.6791 15.6484 20.3663C15.6498 20.3657 15.6546 20.3613 15.6587 20.3576C16.3447 19.7407 16.3578 18.7341 15.6848 18.1023C15.0085 17.4679 13.8954 17.4522 13.1985 18.0685C13.1909 18.0754 13.1683 18.0954 13.1607 18.1029C12.4761 18.7285 12.4761 19.7414 13.1621 20.3663C13.5061 20.6798 13.9559 20.8356 14.4056 20.8356Z" fill="#ADADAD"/>
<path d="M89.6206 41.7639C88.3317 32.8414 83.7916 24.4382 76.8373 18.102C68.3325 10.3532 57.0262 6.08594 44.9996 6.08594C35.6008 6.08594 26.6023 8.69286 18.9764 13.6245C18.1847 14.1369 17.9986 15.1366 18.5603 15.858C19.122 16.5793 20.2192 16.7488 21.0116 16.2371C21.5788 15.8705 22.1542 15.5189 22.7372 15.1804L27.1097 22.0809C25.2256 23.2039 23.454 24.5108 21.8253 25.9947C20.2117 27.4649 18.7773 29.084 17.5399 30.8144L9.96625 26.8312C10.7559 25.6963 11.6121 24.5984 12.535 23.543C13.1392 22.851 13.0143 21.8432 12.2548 21.292C11.4947 20.7409 10.3892 20.8553 9.78428 21.5466C4.70242 27.3604 1.44978 34.351 0.378613 41.7632C-0.906101 50.6525 1.0989 59.8277 6.02147 67.5959C7.06723 69.2544 8.75912 70.4418 10.7854 70.9405C11.4673 71.1087 12.1594 71.1913 12.8474 71.1913C14.2035 71.1913 15.5425 70.8685 16.7496 70.2366C18.5699 69.2832 19.8732 67.7423 20.4204 65.8962C20.9677 64.0494 20.6937 62.12 19.6459 60.459C16.3939 55.3265 15.1236 49.5039 15.9737 43.6207C16.819 37.7712 19.7022 32.4598 24.3116 28.2601C29.8378 23.2252 37.1849 20.4531 44.9996 20.4531C52.815 20.4531 60.1628 23.2252 65.6882 28.2601C70.2977 32.4592 73.1802 37.7712 74.0262 43.6207C74.4327 46.4353 74.353 49.2362 73.8037 51.9551L55.6405 45.6952C55.3096 43.6144 54.2576 41.6882 52.6063 40.1836C48.4136 36.3636 41.5918 36.3636 37.3991 40.1836C33.2065 44.0036 33.2065 50.2196 37.3991 54.0396C39.4954 55.9496 42.2489 56.9043 45.0023 56.9043C47.7565 56.9043 50.5099 55.9496 52.6063 54.039C52.9029 53.7693 53.181 53.4834 53.4405 53.185L72.6007 56.0372C72.006 57.5562 71.2555 59.0351 70.3519 60.4615C68.1938 63.8848 69.4936 68.2697 73.2502 70.236C75.0699 71.1895 77.1882 71.4391 79.2145 70.9405C81.2407 70.4418 82.9326 69.2538 83.9763 67.5991C88.9003 59.8284 90.9053 50.6525 89.6206 41.7639V41.7639ZM16.5992 62.058C17.1767 62.9746 17.3285 64.0406 17.0263 65.061C16.7235 66.0807 16.0032 66.9328 14.998 67.4589C13.992 67.9857 12.822 68.124 11.7021 67.8487C10.5829 67.5728 9.64764 66.9165 9.06811 65.9975C5.67471 60.6423 3.80703 54.7609 3.53856 48.7113H12.2603C12.5412 53.3877 14.0209 57.9897 16.5992 62.058V62.058ZM12.4883 43.2028C12.3771 43.9691 12.3015 44.738 12.2569 45.5075H3.54542C3.59898 44.4014 3.70404 43.2929 3.86471 42.1818C4.50329 37.7643 5.98233 33.5108 8.21187 29.6076L15.7801 33.5884C14.0992 36.5945 12.9724 39.8514 12.4883 43.2028ZM39.8848 51.7743C37.0633 49.2036 37.0633 45.0202 39.8848 42.4495C42.7069 39.8783 47.2978 39.8789 50.1199 42.4495C50.7118 42.9888 51.1883 43.6088 51.5392 44.2826L46.5246 42.554C45.2825 42.1261 43.9209 42.2062 42.6904 42.7811C41.3597 43.4023 40.3331 44.5603 39.9459 45.8779C39.5586 47.1948 39.812 48.6644 40.6236 49.8092C41.3741 50.8671 42.5084 51.5578 43.8192 51.753L49.1085 52.54C46.2905 54.3111 42.391 54.0571 39.8848 51.7743V51.7743ZM52.9255 49.8624C52.9207 49.8618 52.9159 49.8611 52.9111 49.8599L44.3864 48.5912C43.9792 48.5305 43.7217 48.2746 43.5769 48.0713C43.2995 47.6796 43.2095 47.1566 43.342 46.7062C43.4745 46.2558 43.8392 45.8441 44.2944 45.6314C44.4516 45.5582 44.6652 45.4875 44.9041 45.4875C45.0243 45.4875 45.1513 45.5056 45.2804 45.5501L53.3368 48.3265C53.3533 48.3328 53.3705 48.3384 53.3877 48.344L61.4928 51.1374L52.9255 49.8624ZM46.7574 17.2925V9.32535C52.9331 9.55808 58.8664 11.0164 64.2215 13.5714L59.8476 20.4743C55.8136 18.6031 51.3744 17.5133 46.7574 17.2925ZM25.779 13.5732C31.1623 11.0032 37.0922 9.55557 43.2418 9.32347V17.2925C38.6248 17.5133 34.1856 18.6031 30.1516 20.4743L25.779 13.5732ZM62.8895 22.0809L67.2648 15.1767C69.7985 16.6494 72.175 18.3842 74.3509 20.3667C76.5262 22.3487 78.4282 24.5127 80.0432 26.8255L72.4599 30.8151C71.2226 29.084 69.7875 27.4649 68.1739 25.9947C66.5452 24.5108 64.7736 23.2039 62.8895 22.0809ZM74.2191 33.5884L81.8024 29.5995C84.0223 33.4808 85.4897 37.7162 86.1352 42.1818C86.2951 43.2922 86.4002 44.4014 86.4544 45.5075H77.743C77.6983 44.738 77.6221 43.9691 77.5116 43.2028C77.0275 39.8514 75.9007 36.5945 74.2191 33.5884V33.5884ZM80.929 66C80.3515 66.9165 79.4163 67.5728 78.2971 67.8481C77.1779 68.1233 76.0071 67.9857 75.0019 67.4589C72.9262 66.3723 72.2072 63.9493 73.3986 62.0612C74.5061 60.3132 75.4104 58.467 76.1046 56.5589L78.247 56.878C78.3431 56.8924 78.4379 56.8993 78.5319 56.8993C79.3147 56.8993 80.0199 56.4213 80.2286 55.7119C80.4628 54.9167 79.9972 54.0903 79.1527 53.7987L77.1174 53.0981C77.4415 51.6523 77.6503 50.1858 77.7395 48.7113H86.4606C86.1921 54.7616 84.3245 60.6429 80.929 66V66Z" fill="#ADADAD"/>
<path d="M55.5482 62.8604H34.4517C33.4807 62.8604 32.6938 63.5773 32.6938 64.4619V69.5875C32.6938 70.4721 33.4807 71.1891 34.4517 71.1891H55.5482C56.5191 71.1891 57.3067 70.4721 57.3067 69.5875V64.4619C57.3067 63.5773 56.5191 62.8604 55.5482 62.8604V62.8604ZM53.7904 67.986H36.2102V66.0635H53.7904V67.986Z" fill="#ADADAD"/>
<path d="M19.0151 45.5078C18.0442 45.5078 17.2573 46.2248 17.2573 47.1094C17.2573 47.994 18.0442 48.7109 19.0151 48.7109H19.057C20.0279 48.7109 20.8148 47.994 20.8148 47.1094C20.8148 46.2248 20.0279 45.5078 19.057 45.5078H19.0151Z" fill="#ADADAD"/>
<path d="M33.5534 25.8389L33.5328 25.8057C33.0466 25.0399 31.9713 24.7772 31.1309 25.2201C30.2904 25.6624 30.002 26.6421 30.4882 27.4085L30.5088 27.441C30.8343 27.9547 31.4255 28.2418 32.0325 28.2418C32.3311 28.2418 32.6333 28.1724 32.91 28.0272C33.7511 27.5843 34.0388 26.6052 33.5534 25.8389Z" fill="#ADADAD"/>
<path d="M57.9726 28.2451C58.5803 28.2451 59.1708 27.9579 59.4963 27.4443L59.5169 27.4111C60.0031 26.6454 59.7147 25.6657 58.8742 25.2228C58.0338 24.7804 56.9585 25.0426 56.4723 25.8089L56.4517 25.8421C55.9663 26.6079 56.254 27.5876 57.0951 28.0299C57.3718 28.1756 57.674 28.2451 57.9726 28.2451Z" fill="#ADADAD"/>
<path d="M70.9848 48.7164C71.9557 48.7164 72.7426 47.9995 72.7426 47.1149C72.7426 46.2303 71.9557 45.5127 70.9848 45.5127H70.9436C69.9726 45.5127 69.1851 46.2303 69.1851 47.1149C69.1851 47.9995 69.9726 48.7164 70.9436 48.7164H70.9848Z" fill="#ADADAD"/>
<path d="M38.8884 72.791H38.8472C37.8763 72.791 37.0894 73.508 37.0894 74.3926C37.0894 75.2772 37.8763 75.9941 38.8472 75.9941H38.8884C39.8593 75.9941 40.6469 75.2772 40.6469 74.3926C40.6469 73.508 39.8593 72.791 38.8884 72.791Z" fill="#ADADAD"/>
<path d="M51.1536 72.791H43.939C42.9687 72.791 42.1812 73.5086 42.1812 74.3932C42.1812 75.2778 42.9687 75.9948 43.939 75.9948H51.1536C52.1238 75.9948 52.9114 75.2778 52.9114 74.3932C52.9114 73.5086 52.1245 72.791 51.1536 72.791V72.791Z" fill="#ADADAD"/>
</g>
<defs>
<clipPath id="clip0">
<rect width="90" height="82" fill="white"/>
</clipPath>
</defs>
</svg>
