<svg width="91" height="115" viewBox="0 0 91 115" fill="none" xmlns="http://www.w3.org/2000/svg">
<path d="M13.4316 105.264C13.321 106.794 12.7546 107.998 11.7324 108.877C10.7168 109.756 9.37565 110.195 7.70898 110.195C5.88607 110.195 4.45052 109.583 3.40234 108.359C2.36068 107.129 1.83984 105.443 1.83984 103.301V102.432C1.83984 101.064 2.08073 99.86 2.5625 98.8184C3.04427 97.7767 3.73112 96.9792 4.62305 96.4258C5.52148 95.8659 6.56315 95.5859 7.74805 95.5859C9.38867 95.5859 10.7103 96.0254 11.7129 96.9043C12.7155 97.7832 13.2949 99.0169 13.4512 100.605H10.5215C10.4499 99.6875 10.1927 99.0234 9.75 98.6133C9.3138 98.1966 8.64648 97.9883 7.74805 97.9883C6.77148 97.9883 6.03906 98.3398 5.55078 99.043C5.06901 99.7396 4.82161 100.824 4.80859 102.295V103.369C4.80859 104.906 5.03971 106.029 5.50195 106.738C5.9707 107.448 6.70638 107.803 7.70898 107.803C8.61393 107.803 9.28776 107.598 9.73047 107.188C10.1797 106.771 10.4368 106.13 10.502 105.264H13.4316ZM21.293 110C21.1628 109.746 21.0684 109.43 21.0098 109.053C20.3262 109.814 19.4375 110.195 18.3438 110.195C17.3086 110.195 16.4492 109.896 15.7656 109.297C15.0885 108.698 14.75 107.943 14.75 107.031C14.75 105.911 15.1634 105.052 15.9902 104.453C16.8236 103.854 18.0247 103.551 19.5938 103.545H20.8926V102.939C20.8926 102.451 20.7656 102.061 20.5117 101.768C20.2643 101.475 19.8704 101.328 19.3301 101.328C18.8548 101.328 18.4805 101.442 18.207 101.67C17.9401 101.898 17.8066 102.21 17.8066 102.607H14.9844C14.9844 101.995 15.1732 101.429 15.5508 100.908C15.9284 100.387 16.4622 99.9805 17.1523 99.6875C17.8424 99.388 18.6172 99.2383 19.4766 99.2383C20.7786 99.2383 21.8105 99.5671 22.5723 100.225C23.3405 100.876 23.7246 101.794 23.7246 102.979V107.559C23.7311 108.561 23.8711 109.32 24.1445 109.834V110H21.293ZM18.959 108.037C19.3757 108.037 19.7598 107.946 20.1113 107.764C20.4629 107.575 20.7233 107.324 20.8926 107.012V105.195H19.8379C18.4251 105.195 17.6732 105.684 17.582 106.66L17.5723 106.826C17.5723 107.178 17.696 107.467 17.9434 107.695C18.1908 107.923 18.5293 108.037 18.959 108.037ZM31.8301 102.08C31.446 102.028 31.1074 102.002 30.8145 102.002C29.7467 102.002 29.0469 102.363 28.7148 103.086V110H25.8926V99.4336H28.5586L28.6367 100.693C29.2031 99.7233 29.9876 99.2383 30.9902 99.2383C31.3027 99.2383 31.5957 99.2806 31.8691 99.3652L31.8301 102.08ZM38.3633 110V95.7812H43.3438C45.069 95.7812 46.3776 96.1133 47.2695 96.7773C48.1615 97.4349 48.6074 98.4017 48.6074 99.6777C48.6074 100.374 48.4284 100.99 48.0703 101.523C47.7122 102.051 47.2142 102.438 46.5762 102.686C47.3053 102.868 47.8783 103.236 48.2949 103.789C48.7181 104.342 48.9297 105.02 48.9297 105.82C48.9297 107.188 48.4935 108.223 47.6211 108.926C46.7487 109.629 45.5052 109.987 43.8906 110H38.3633ZM41.293 103.809V107.646H43.8027C44.4928 107.646 45.0299 107.484 45.4141 107.158C45.8047 106.826 46 106.37 46 105.791C46 104.489 45.3262 103.828 43.9785 103.809H41.293ZM41.293 101.738H43.4609C44.9388 101.712 45.6777 101.123 45.6777 99.9707C45.6777 99.3262 45.4889 98.8639 45.1113 98.584C44.7402 98.2975 44.151 98.1543 43.3438 98.1543H41.293V101.738ZM56.8887 102.08C56.5046 102.028 56.166 102.002 55.873 102.002C54.8053 102.002 54.1055 102.363 53.7734 103.086V110H50.9512V99.4336H53.6172L53.6953 100.693C54.2617 99.7233 55.0462 99.2383 56.0488 99.2383C56.3613 99.2383 56.6543 99.2806 56.9277 99.3652L56.8887 102.08ZM64.0859 110C63.9557 109.746 63.8613 109.43 63.8027 109.053C63.1191 109.814 62.2305 110.195 61.1367 110.195C60.1016 110.195 59.2422 109.896 58.5586 109.297C57.8815 108.698 57.543 107.943 57.543 107.031C57.543 105.911 57.9564 105.052 58.7832 104.453C59.6165 103.854 60.8177 103.551 62.3867 103.545H63.6855V102.939C63.6855 102.451 63.5586 102.061 63.3047 101.768C63.0573 101.475 62.6634 101.328 62.123 101.328C61.6478 101.328 61.2734 101.442 61 101.67C60.7331 101.898 60.5996 102.21 60.5996 102.607H57.7773C57.7773 101.995 57.9661 101.429 58.3438 100.908C58.7214 100.387 59.2552 99.9805 59.9453 99.6875C60.6354 99.388 61.4102 99.2383 62.2695 99.2383C63.5716 99.2383 64.6035 99.5671 65.3652 100.225C66.1335 100.876 66.5176 101.794 66.5176 102.979V107.559C66.5241 108.561 66.6641 109.32 66.9375 109.834V110H64.0859ZM61.752 108.037C62.1686 108.037 62.5527 107.946 62.9043 107.764C63.2559 107.575 63.5163 107.324 63.6855 107.012V105.195H62.6309C61.2181 105.195 60.4661 105.684 60.375 106.66L60.3652 106.826C60.3652 107.178 60.4889 107.467 60.7363 107.695C60.9837 107.923 61.3223 108.037 61.752 108.037ZM71.2832 99.4336L71.3711 100.654C72.1263 99.7103 73.1387 99.2383 74.4082 99.2383C75.528 99.2383 76.3613 99.5671 76.9082 100.225C77.4551 100.882 77.735 101.865 77.748 103.174V110H74.9258V103.242C74.9258 102.643 74.7956 102.21 74.5352 101.943C74.2747 101.67 73.8418 101.533 73.2363 101.533C72.4421 101.533 71.8464 101.872 71.4492 102.549V110H68.627V99.4336H71.2832ZM79.457 104.639C79.457 102.992 79.8249 101.68 80.5605 100.703C81.3027 99.7266 82.3151 99.2383 83.5977 99.2383C84.6263 99.2383 85.4759 99.6224 86.1465 100.391V95H88.9785V110H86.4297L86.293 108.877C85.5898 109.756 84.6849 110.195 83.5781 110.195C82.3346 110.195 81.3353 109.707 80.5801 108.73C79.8314 107.747 79.457 106.383 79.457 104.639ZM82.2793 104.844C82.2793 105.833 82.4518 106.592 82.7969 107.119C83.1419 107.646 83.6432 107.91 84.3008 107.91C85.1732 107.91 85.7884 107.542 86.1465 106.807V102.637C85.7949 101.901 85.1862 101.533 84.3203 101.533C82.9596 101.533 82.2793 102.637 82.2793 104.844Z" fill="#ADADAD"/>
<g clip-path="url(#clip0)">
<path d="M57.8042 59.0545C56.8579 58.5364 55.8868 58.0156 54.9156 57.505C55.1439 55.7321 55.1444 53.9386 54.9166 52.1692C55.8915 51.6567 56.8622 51.1362 57.8038 50.6204C59.3894 49.7523 60.0503 47.9208 59.3409 46.3597C59.3409 46.3597 59.3409 46.3597 59.3407 46.3596L57.2716 41.8082C56.5619 40.2477 54.674 39.3779 52.8783 39.7855C51.8111 40.0275 50.7207 40.2848 49.6342 40.5504C48.4212 39.1519 47.0291 37.8839 45.4923 36.7781C45.7837 35.788 46.0664 34.794 46.3322 33.8214C46.7795 32.1861 45.825 30.4653 44.1122 29.8188L39.1169 27.9336C37.4041 27.2869 35.3933 27.8886 34.4402 29.3335C33.8726 30.1942 33.3008 31.0791 32.7397 31.9654C30.7943 31.7573 28.8263 31.7568 26.8834 31.9642C26.3205 31.0752 25.7491 30.1907 25.1836 29.3335C24.2301 27.8889 22.2199 27.287 20.5069 27.9336L15.5116 29.8188C13.7991 30.4652 12.8443 32.1861 13.2916 33.8214C13.5579 34.796 13.8402 35.7896 14.1311 36.7771C12.5964 37.882 11.2046 39.1506 9.99097 40.5509C8.90183 40.2845 7.81094 40.0273 6.74553 39.7855C4.9501 39.3776 3.06185 40.248 2.35222 41.8084L0.283455 46.3596C-0.425822 47.9203 0.23494 49.752 1.82014 50.62C2.76496 51.1373 3.73615 51.6582 4.70875 52.1696C4.48058 53.9418 4.48006 55.735 4.70769 57.5053C3.73422 58.017 2.76355 58.5377 1.81978 59.0543C0.234588 59.9226 -0.426174 61.7541 0.28328 63.315L2.35258 67.8663C3.06203 69.4267 4.94974 70.2968 6.74588 69.8891C7.81182 69.6472 8.90236 69.39 9.98957 69.1242C11.2026 70.5225 12.5946 71.7903 14.1315 72.8963C13.8397 73.8875 13.5572 74.8815 13.2916 75.853C12.8443 77.4883 13.7987 79.2092 15.5116 79.8556L20.5071 81.741C20.9712 81.916 21.4568 81.9996 21.9374 81.9996C23.2315 81.9996 24.4887 81.3944 25.1843 80.3412C25.7477 79.4871 26.3191 78.6025 26.8848 77.7095C28.8298 77.9172 30.7984 77.9176 32.7411 77.7105C33.2999 78.5933 33.8714 79.4776 34.4409 80.3414C35.394 81.786 37.4042 82.3877 39.1176 81.7413L44.1129 79.8561C45.8254 79.2097 46.7802 77.4888 46.3329 75.8535C46.0687 74.8872 45.7864 73.8936 45.4933 72.8978C47.0277 71.7929 48.4197 70.5244 49.6337 69.1242C50.7197 69.3896 51.8106 69.6468 52.8786 69.8892C54.6735 70.2972 56.5623 69.4274 57.2719 67.8665L59.341 63.315C60.0501 61.7543 59.3894 59.9226 57.8042 59.0545ZM53.6332 66.2777C52.6072 66.0436 51.5613 65.796 50.5214 65.5407C49.049 65.1798 47.4953 65.6515 46.563 66.743C45.4914 67.997 44.2513 69.1271 42.8772 70.1019C41.6806 70.9511 41.1637 72.3662 41.5601 73.7069C41.8418 74.6605 42.1134 75.6127 42.3688 76.541L37.7771 78.2737C37.2309 77.4435 36.6841 76.5951 36.1495 75.7489C35.3889 74.5455 33.925 73.8786 32.4201 74.0483C30.692 74.2439 28.9379 74.2437 27.2075 74.0475C25.6984 73.8768 24.2358 74.5437 23.4753 75.7474C22.9343 76.6033 22.3872 77.4521 21.8471 78.2736L17.2553 76.5407C17.5121 75.6075 17.7839 74.6547 18.0644 73.7058C18.4608 72.3645 17.9428 70.9487 16.7448 70.099C15.3685 69.1229 14.1283 67.9932 13.0582 66.7414C12.1265 65.6509 10.5733 65.18 9.10135 65.541C8.06019 65.7964 7.01482 66.044 5.9909 66.2779L4.08894 62.0944C4.99597 61.5989 5.92744 61.1007 6.86014 60.6114C8.18113 59.9184 8.91379 58.5849 8.72676 57.2137C8.51178 55.639 8.5123 54.041 8.72728 52.4642C8.91502 51.0917 8.18289 49.7568 6.86119 49.0636C5.92885 48.5745 4.99721 48.0761 4.08877 47.5798L5.99072 43.3964C7.01377 43.63 8.05931 43.8776 9.1024 44.1334C10.574 44.4947 12.1279 44.0226 13.061 42.9311C14.1324 41.6771 15.3725 40.547 16.7462 39.5723C17.943 38.7233 18.4599 37.308 18.0636 35.9669C17.7841 35.0213 17.5123 34.069 17.2548 33.1331L21.8465 31.4003C22.3887 32.2245 22.9357 33.073 23.4741 33.9252C24.2349 35.1288 25.7 35.7973 27.2035 35.6257C28.9309 35.4299 30.6846 35.4299 32.4166 35.6265C33.9239 35.7976 35.3882 35.1297 36.1486 33.9262C36.6853 33.0767 37.2325 32.2279 37.7767 31.4003L42.3685 33.1331C42.1115 34.0673 41.8397 35.02 41.5594 35.9683C41.163 37.3095 41.681 38.7252 42.8789 39.5749C44.2551 40.551 45.4954 41.6808 46.5656 42.9325C47.4972 44.0227 49.0499 44.4937 50.5226 44.1328C51.5631 43.8775 52.6083 43.6299 53.6329 43.3959L55.5347 47.5793C54.6289 48.074 53.6976 48.5723 52.7635 49.0624C51.4425 49.7554 50.7097 51.089 50.8969 52.4602C51.1118 54.0341 51.1115 55.6323 50.896 57.21C50.7086 58.5827 51.4411 59.9173 52.7622 60.6103C53.6932 61.0986 54.6248 61.597 55.5347 62.0938L53.6332 66.2777Z" fill="#ADADAD"/>
<path d="M42.4974 50.0505C42.4974 50.0505 42.4974 50.0505 42.4972 50.0504C39.6003 43.6779 31.5538 40.6409 24.5585 43.2804C17.5646 45.9201 14.231 53.2521 17.1283 59.6245C18.5315 62.7117 21.1707 65.1158 24.5587 66.3946C26.2527 67.0338 28.0327 67.3535 29.8126 67.3535C31.5926 67.3535 33.3726 67.0338 35.0669 66.3946C42.0609 63.7549 45.3942 56.4231 42.4974 50.0505ZM33.5251 63.0035C31.1314 63.9069 28.4948 63.9068 26.1003 63.0035C23.7065 62.1 21.842 60.4011 20.8503 58.2199C18.8029 53.7173 21.1584 48.5366 26.1005 46.6716C27.3107 46.2148 28.5651 45.9986 29.8002 45.9986C33.6088 45.9986 37.2296 48.055 38.7756 51.4551C40.8225 55.9577 38.4671 61.1383 33.5251 63.0035Z" fill="#ADADAD"/>
<path d="M87.2848 16.1655C86.5894 16.0707 85.8752 15.9786 85.1559 15.8912C84.7934 14.793 84.3093 13.7283 83.712 12.717C84.1522 12.1925 84.586 11.6671 85.0052 11.1509C85.936 10.004 85.8013 8.37745 84.6923 7.36751L81.9136 4.83608C80.8046 3.82549 79.0193 3.70297 77.7609 4.55132C77.1924 4.93457 76.6159 5.32968 76.042 5.72927C74.9323 5.18506 73.7638 4.74399 72.5582 4.41359C72.462 3.75823 72.3613 3.10751 72.2572 2.47409C72.0257 1.06376 70.6683 0 69.1 0H65.1702C63.6019 0 62.2445 1.06376 62.013 2.47393C61.9091 3.10703 61.8082 3.75791 61.7121 4.41343C60.5064 4.74383 59.3378 5.1849 58.2283 5.72911C57.6547 5.32936 57.0778 4.93409 56.5095 4.55116C55.2507 3.70281 53.4655 3.82533 52.3568 4.83576L49.5784 7.36703C48.4693 8.37729 48.3344 10.004 49.2655 11.151C49.6844 11.6671 50.1183 12.1927 50.5582 12.717C49.9613 13.7281 49.477 14.7927 49.1144 15.8912C48.3953 15.9788 47.6809 16.0707 46.9857 16.1655C45.4376 16.3766 44.27 17.6132 44.27 19.0423V22.6226C44.27 24.0515 45.4372 25.2882 46.9853 25.4993C47.6807 25.5941 48.3949 25.6862 49.1142 25.7736C49.4768 26.872 49.9609 27.9365 50.5581 28.9478C50.1184 29.4718 49.6846 29.9971 49.2648 30.5139C48.3343 31.6605 48.4687 33.2874 49.5777 34.2971L52.3565 36.8289C53.4653 37.8395 55.2505 37.9618 56.5091 37.1136C57.0776 36.7307 57.6542 36.3353 58.2279 35.9359C59.338 36.4801 60.5066 36.9211 61.7119 37.2514C61.8077 37.9066 61.9088 38.5575 62.0129 39.191C62.2445 40.6014 63.6019 41.6651 65.1702 41.6651H69.1C70.6683 41.6651 72.0257 40.6017 72.2572 39.1909C72.3611 38.5573 72.462 37.9066 72.5582 37.2512C73.7637 36.9211 74.9321 36.4798 76.042 35.9355C76.6155 36.3353 77.1925 36.7306 77.7608 37.1136C79.0192 37.962 80.8048 37.8395 81.9134 36.8291L84.6922 34.2976C85.8012 33.2874 85.9358 31.6606 85.0047 30.5138C84.5853 29.9971 84.1515 29.4715 83.712 28.9479C84.309 27.9369 84.7932 26.8725 85.1559 25.7738C85.875 25.6862 86.5894 25.5943 87.2846 25.4994C88.8327 25.2884 90.0002 24.0518 90.0002 22.6227V19.0424C90 17.6133 88.8327 16.3766 87.2848 16.1655ZM86.1729 22.1243C85.5415 22.2077 84.8973 22.2888 84.2509 22.3655C82.9725 22.5175 81.9259 23.3442 81.5852 24.4714C81.2588 25.5507 80.7851 26.5922 80.1774 27.5669C79.5426 28.5844 79.6406 29.8435 80.4268 30.7751C80.8232 31.2447 81.2164 31.7173 81.5991 32.1844L79.5945 34.0109C79.0803 33.6613 78.5616 33.3032 78.0473 32.9429C77.0253 32.2262 75.6429 32.1376 74.526 32.7153C73.456 33.2691 72.3129 33.7007 71.129 33.9981C69.8912 34.3088 68.9838 35.2624 68.8175 36.4269C68.7333 37.0158 68.6446 37.6029 68.5528 38.1782H65.7174C65.6259 37.6029 65.5371 37.016 65.4527 36.4275C65.2859 35.2626 64.3787 34.309 63.1412 33.9983C61.957 33.701 60.8142 33.2694 59.7439 32.7156C58.627 32.1374 57.2446 32.2263 56.2228 32.9429C55.7083 33.3034 55.1899 33.6613 54.6754 34.0109L52.6708 32.1844C53.0535 31.7169 53.4465 31.2446 53.8434 30.7745C54.6292 29.8432 54.7271 28.584 54.0925 27.5666C53.4848 26.5919 53.0111 25.5502 52.6847 24.4712C52.3438 23.3437 51.2974 22.5172 50.0189 22.3652C49.3726 22.2883 48.7282 22.2076 48.0968 22.1238V19.5408C48.7282 19.4574 49.3724 19.3763 50.0188 19.2996C51.2972 19.1476 52.3438 18.3209 52.6845 17.1937C53.0109 16.1146 53.4845 15.0731 54.0923 14.0982C54.7271 13.0808 54.6292 11.8215 53.8432 10.8901C53.4462 10.4199 53.0531 9.94746 52.6708 9.48077L54.6754 7.65419C55.1896 8.00381 55.7081 8.36192 56.2223 8.72211C57.2439 9.43881 58.6261 9.52818 59.7439 8.94985C60.8135 8.39619 61.9568 7.96457 63.1408 7.667C64.3787 7.3563 65.2861 6.40273 65.4524 5.23823C65.5367 4.64934 65.6257 4.06236 65.7173 3.48708H68.5526C68.6442 4.0622 68.733 4.64918 68.8172 5.23775C68.984 6.40273 69.8914 7.3563 71.1287 7.66684C72.3131 7.96425 73.4564 8.39603 74.5262 8.94969C75.6433 9.52802 77.0255 9.43817 78.0471 8.72227C78.5616 8.36192 79.08 8.00381 79.5945 7.65419L81.5991 9.48077C81.2168 9.94762 80.8237 10.4202 80.4266 10.8906C79.6407 11.8218 79.543 13.0809 80.1772 14.0984C80.7849 15.0734 81.2586 16.1151 81.585 17.1939C81.9259 18.3214 82.9723 19.148 84.2508 19.2999C84.8971 19.3768 85.5415 19.4577 86.1729 19.5413V22.1243Z" fill="#ADADAD"/>
<path d="M67.1349 13.4014C62.6376 13.4014 58.9785 16.735 58.9785 20.8328C58.9785 24.9307 62.6374 28.2643 67.1349 28.2643C71.6325 28.2643 75.2914 24.9307 75.2914 20.8328C75.2914 16.735 71.6325 13.4014 67.1349 13.4014ZM67.1349 24.9608C64.6369 24.9608 62.6042 23.1089 62.6042 20.8326C62.6042 18.5563 64.6367 16.7046 67.1349 16.7046C69.6331 16.7046 71.6655 18.5565 71.6657 20.8326C71.6657 23.1089 69.6331 24.9608 67.1349 24.9608Z" fill="#ADADAD"/>
</g>
<defs>
<clipPath id="clip0">
<rect width="90" height="82" fill="white"/>
</clipPath>
</defs>
</svg>
