<svg width="108" height="116" viewBox="0 0 108 116" fill="none" xmlns="http://www.w3.org/2000/svg">
<path d="M9.29688 112.437H4.16016L3.18359 115.367H0.0683594L5.36133 101.148H8.07617L13.3984 115.367H10.2832L9.29688 112.437ZM4.95117 110.064H8.50586L6.71875 104.742L4.95117 110.064ZM25.3125 101.148V110.513C25.3125 112.069 24.8242 113.3 23.8477 114.205C22.8776 115.11 21.5495 115.562 19.8633 115.562C18.2031 115.562 16.8848 115.123 15.9082 114.244C14.9316 113.365 14.4336 112.157 14.4141 110.621V101.148H17.3438V110.533C17.3438 111.464 17.5651 112.144 18.0078 112.574C18.457 112.997 19.0755 113.208 19.8633 113.208C21.5104 113.208 22.347 112.343 22.373 110.611V101.148H25.3125ZM38.418 103.521H34.0625V115.367H31.1328V103.521H26.8359V101.148H38.418V103.521ZM51.5039 108.58C51.5039 109.979 51.2565 111.207 50.7617 112.261C50.2669 113.316 49.5573 114.13 48.6328 114.703C47.7148 115.276 46.6602 115.562 45.4688 115.562C44.2904 115.562 43.2389 115.279 42.3145 114.712C41.39 114.146 40.6738 113.339 40.166 112.291C39.6582 111.236 39.401 110.025 39.3945 108.658V107.955C39.3945 106.555 39.6452 105.324 40.1465 104.263C40.6543 103.195 41.3672 102.378 42.2852 101.812C43.2096 101.239 44.2643 100.953 45.4492 100.953C46.6341 100.953 47.6855 101.239 48.6035 101.812C49.528 102.378 50.2409 103.195 50.7422 104.263C51.25 105.324 51.5039 106.552 51.5039 107.945V108.58ZM48.5352 107.935C48.5352 106.444 48.2682 105.311 47.7344 104.537C47.2005 103.762 46.4388 103.375 45.4492 103.375C44.4661 103.375 43.7077 103.759 43.1738 104.527C42.64 105.289 42.3698 106.408 42.3633 107.886V108.58C42.3633 110.031 42.6302 111.158 43.1641 111.958C43.6979 112.759 44.4661 113.16 45.4688 113.16C46.4518 113.16 47.207 112.776 47.7344 112.007C48.2617 111.233 48.5286 110.106 48.5352 108.628V107.935ZM57.4609 101.148L61.1133 111.46L64.7461 101.148H68.5938V115.367H65.6543V111.48L65.9473 104.771L62.1094 115.367H60.0977L56.2695 104.781L56.5625 111.48V115.367H53.6328V101.148H57.4609ZM79.3555 112.437H74.2188L73.2422 115.367H70.127L75.4199 101.148H78.1348L83.457 115.367H80.3418L79.3555 112.437ZM75.0098 110.064H78.5645L76.7773 104.742L75.0098 110.064ZM84.7852 115.367V101.148H89.1602C90.4102 101.148 91.5267 101.431 92.5098 101.998C93.4993 102.557 94.2708 103.358 94.8242 104.4C95.3776 105.435 95.6543 106.613 95.6543 107.935V108.589C95.6543 109.911 95.3809 111.086 94.834 112.115C94.2936 113.143 93.5286 113.941 92.5391 114.507C91.5495 115.074 90.4329 115.36 89.1895 115.367H84.7852ZM87.7148 103.521V113.013H89.1309C90.2767 113.013 91.1523 112.639 91.7578 111.89C92.3633 111.141 92.6725 110.07 92.6855 108.677V107.925C92.6855 106.48 92.3861 105.386 91.7871 104.644C91.1882 103.895 90.3125 103.521 89.1602 103.521H87.7148ZM106.348 109.205H100.723V113.013H107.324V115.367H97.793V101.148H107.305V103.521H100.723V106.91H106.348V109.205Z" fill="#C4C4C4"/>
<path d="M54.4487 77.4304C43.4845 77.4304 32.4858 76.9859 21.5203 76.0947C19.6778 75.9319 17.9644 75.1089 16.7151 73.7868C15.4658 72.4647 14.7706 70.7386 14.7654 68.9461V57.2343C14.73 55.1287 15.1865 53.0426 16.1007 51.1321C17.0149 49.2215 18.3632 47.536 20.0446 46.2015L14.4112 44.823C13.8612 44.6892 13.3479 44.4407 12.9072 44.0949C12.4665 43.7491 12.109 43.3143 11.8596 42.8208C11.6102 42.3274 11.4749 41.7871 11.4632 41.2378C11.4515 40.6885 11.5637 40.1433 11.7919 39.6403C12.3149 38.5023 13.1669 37.5354 14.245 36.8565C15.323 36.1775 16.581 35.8157 17.8667 35.8145H23.3255C24.091 35.8979 24.8276 36.1464 25.4809 36.5419C26.1343 36.9373 26.6878 37.4697 27.1008 38.0997L31.1355 31.6993C32.3079 29.8562 33.9456 28.3327 35.894 27.2725C37.8423 26.2123 40.0373 25.6504 42.2719 25.6396H66.73C68.9643 25.6505 71.159 26.2123 73.1071 27.2723C75.0553 28.3322 76.6928 29.8554 77.8652 31.6981L81.8987 38.0973C82.299 37.4774 82.8364 36.9514 83.472 36.5572C84.1077 36.1631 84.8258 35.9106 85.5744 35.8181H91.134C92.4179 35.8186 93.6742 36.1787 94.7516 36.8552C95.829 37.5316 96.6815 38.4955 97.2064 39.6307C97.423 40.1137 97.5368 40.634 97.5409 41.1605C97.5433 42.0033 97.2538 42.8225 96.7187 43.487C96.1836 44.1514 95.4339 44.6227 94.5896 44.8254L88.9156 46.211L89.0066 46.2885C90.5708 47.6671 91.8153 49.3516 92.6579 51.2306C93.5005 53.1096 93.9221 55.1404 93.8948 57.189V68.9378C93.8895 70.7306 93.1939 72.457 91.9441 73.7792C90.6943 75.1014 88.9803 75.9241 87.1374 76.0864C76.3342 76.9859 65.4081 77.4304 54.4487 77.4304ZM23.2062 38.1915L17.8643 38.1974C17.0557 38.199 16.2648 38.4268 15.5868 38.8536C14.9087 39.2803 14.3724 39.8878 14.0423 40.6029C13.959 40.7896 13.9187 40.9916 13.9242 41.1949C13.9297 41.3982 13.9809 41.5979 14.0742 41.7801C14.1642 41.9616 14.2947 42.1214 14.4564 42.248C14.618 42.3745 14.8068 42.4646 15.0088 42.5116L23.494 44.58C23.7467 44.6409 23.9729 44.778 24.14 44.9715C24.3072 45.165 24.4066 45.4049 24.4239 45.6567C24.4413 45.9084 24.3757 46.159 24.2367 46.3723C24.0976 46.5857 23.8922 46.7507 23.6501 46.8437C23.165 47.0343 22.7045 47.279 22.2778 47.5729C20.6811 48.6563 19.385 50.1047 18.5043 51.7895C17.6235 53.4744 17.1853 55.3437 17.2285 57.2319V68.9437C17.2294 70.1402 17.6911 71.2932 18.5234 72.1772C19.3556 73.0611 20.4985 73.6122 21.7281 73.7226C43.4256 75.4931 65.2382 75.4931 86.9357 73.7226C88.1659 73.6128 89.3095 73.0619 90.1424 72.178C90.9754 71.294 91.4378 70.1407 91.439 68.9437V57.189C91.4665 55.4775 91.1191 53.7799 90.4196 52.2081C89.72 50.6364 88.6843 49.2263 87.3809 48.0709C86.8292 47.5522 86.1778 47.1434 85.4637 46.8675C85.2087 46.7893 84.9869 46.6327 84.832 46.4213C84.6771 46.2099 84.5976 45.9554 84.6056 45.6963C84.6135 45.4372 84.7084 45.1877 84.8759 44.9856C85.0434 44.7835 85.2744 44.6398 85.5338 44.5764L93.9968 42.5092C94.3055 42.4312 94.579 42.2568 94.7751 42.013C94.9711 41.7692 95.0788 41.4696 95.0815 41.1605C95.0788 40.9606 95.0344 40.7632 94.9511 40.5803C94.619 39.8703 94.0829 39.2681 93.4068 38.8455C92.7308 38.4229 91.9435 38.1979 91.1389 38.1974H85.6765C85.5867 38.2141 83.7569 38.4858 83.4003 40.9937C83.3657 41.2373 83.2542 41.4645 83.0811 41.6442C82.9079 41.8239 82.6817 41.9473 82.4333 41.9976C82.185 42.0478 81.9266 42.0224 81.6938 41.9248C81.4609 41.8272 81.2649 41.6622 81.1326 41.4524L75.7747 32.942C74.8232 31.4459 73.4941 30.2093 71.9128 29.3486C70.3314 28.4879 68.5499 28.0316 66.7362 28.0225H42.2695C40.4556 28.0315 38.6739 28.4879 37.0925 29.3488C35.5112 30.2098 34.1822 31.4468 33.231 32.9432L27.8669 41.4524C27.7346 41.6622 27.5386 41.8272 27.3057 41.9248C27.0729 42.0224 26.8145 42.0478 26.5662 41.9976C26.3178 41.9473 26.0916 41.8239 25.9185 41.6442C25.7454 41.4645 25.6339 41.2373 25.5993 40.9937C25.2426 38.4834 23.4128 38.2141 23.2062 38.1915Z" fill="#C4C4C4"/>
<path d="M74.7724 47.3524H34.2281C33.8246 47.3526 33.4281 47.2505 33.078 47.0561C32.7279 46.8618 32.4364 46.582 32.2325 46.2446C32.0287 45.9072 31.9196 45.524 31.9161 45.133C31.9126 44.7421 32.0148 44.3571 32.2126 44.0163L37.2545 35.3129C37.8151 34.3469 38.6308 33.5427 39.6179 32.9828C40.605 32.423 41.7281 32.1276 42.8719 32.127H66.1249C67.2687 32.1276 68.3918 32.423 69.3789 32.9828C70.366 33.5427 71.1817 34.3469 71.7423 35.3129L76.7842 44.0104C76.982 44.3511 77.0842 44.7361 77.0807 45.1271C77.0772 45.518 76.9681 45.9012 76.7643 46.2386C76.5604 46.576 76.269 46.8558 75.9188 47.0502C75.5687 47.2445 75.1722 47.3466 74.7687 47.3464L74.7724 47.3524ZM34.4827 44.9695H74.5178L69.5989 36.4829C69.252 35.8859 68.7477 35.389 68.1375 35.043C67.5273 34.6969 66.8332 34.5142 66.1261 34.5134H42.8756C42.1685 34.5139 41.4743 34.6966 40.8641 35.0427C40.2538 35.3887 39.7495 35.8858 39.4029 36.4829L34.4827 44.9695Z" fill="#C4C4C4"/>
<path d="M63.9862 66.1116H45.0741C44.3271 66.115 43.5992 65.8828 43.0002 65.4502C42.4013 65.0175 41.9638 64.4079 41.7539 63.7133L41.0665 61.4781C40.9096 60.9687 40.8777 60.4308 40.9734 59.9073C41.069 59.3838 41.2896 58.8891 41.6175 58.4628C41.9453 58.0365 42.3714 57.6903 42.8618 57.4518C43.3522 57.2132 43.8933 57.0889 44.4421 57.0889H64.6182C65.1669 57.0892 65.7079 57.2136 66.1981 57.4522C66.6884 57.6909 67.1144 58.0371 67.4422 58.4633C67.77 58.8896 67.9906 59.3841 68.0863 59.9075C68.1821 60.4308 68.1504 60.9687 67.9938 61.4781L67.3077 63.7073C67.0926 64.3998 66.6538 65.007 66.0559 65.4399C65.458 65.8727 64.7325 66.1081 63.9862 66.1116ZM44.4421 59.4765C44.2766 59.477 44.1135 59.5148 43.9657 59.5869C43.8179 59.6591 43.6895 59.7635 43.5906 59.8921C43.4916 60.0206 43.425 60.1697 43.3958 60.3275C43.3667 60.4854 43.3759 60.6476 43.4226 60.8014V60.8014L44.1088 63.027C44.1701 63.2288 44.2973 63.4059 44.4714 63.5316C44.6455 63.6573 44.857 63.7248 45.0741 63.724H63.9862C64.203 63.7233 64.414 63.6553 64.588 63.5298C64.762 63.4043 64.8898 63.2281 64.9527 63.027L65.6389 60.7966C65.6857 60.6428 65.6949 60.4806 65.6657 60.3228C65.6366 60.1649 65.5699 60.0159 65.471 59.8873C65.3721 59.7588 65.2436 59.6543 65.0958 59.5822C64.948 59.51 64.785 59.4722 64.6195 59.4717L44.4421 59.4765Z" fill="#C4C4C4"/>
<path d="M34.7011 65.8166C34.4641 65.8161 34.2281 65.7861 33.999 65.7272L25.2679 63.4099C24.6079 63.2424 23.9891 62.9488 23.4479 62.5463C22.9067 62.1438 22.4541 61.6406 22.1165 61.0661C21.779 60.4916 21.5634 59.8576 21.4824 59.2013C21.4015 58.5449 21.4568 57.8795 21.6451 57.2442C21.9727 56.1403 22.6607 55.1689 23.606 54.4757C24.5514 53.7826 25.7031 53.4049 26.8887 53.3994C27.3225 53.4045 27.7544 53.4568 28.1762 53.5555L28.914 53.7616C30.8312 54.2335 32.5856 55.188 33.9995 56.5283C35.4133 57.8686 36.4364 59.5472 36.9651 61.394L37.2848 62.5068C37.395 62.8935 37.4119 63.2995 37.3342 63.6935C37.2564 64.0876 37.0861 64.459 36.8364 64.779C36.5867 65.099 36.2644 65.359 35.8943 65.5389C35.5243 65.7189 35.1164 65.8139 34.7024 65.8166H34.7011ZM26.885 55.7823C26.2332 55.7871 25.6006 55.9965 25.082 56.3791C24.5634 56.7616 24.1868 57.2968 24.0086 57.9042C23.9102 58.2345 23.8809 58.5805 23.9227 58.9218C23.9645 59.2631 24.0765 59.5929 24.2519 59.8917C24.4274 60.1904 24.6629 60.452 24.9445 60.6612C25.2261 60.8703 25.548 61.0226 25.8914 61.1092H25.9073L34.6384 63.4254C34.6776 63.4338 34.7183 63.4324 34.7567 63.4211C34.7951 63.4099 34.8299 63.3893 34.8576 63.3613C34.8854 63.3333 34.9053 63.2988 34.9154 63.2612C34.9255 63.2236 34.9254 63.1841 34.9151 63.1466L34.5954 62.0326C34.1797 60.5858 33.376 59.2715 32.266 58.2232C31.156 57.175 29.7792 56.4302 28.2758 56.0647L27.565 55.8657C27.3427 55.8158 27.1156 55.7878 26.8874 55.7823H26.885Z" fill="#C4C4C4"/>
<path d="M74.2984 65.8154C73.8843 65.8131 73.4764 65.7184 73.1062 65.5387C72.736 65.359 72.4135 65.0991 72.1637 64.7791C71.9139 64.4591 71.7436 64.0876 71.666 63.6936C71.5883 63.2995 71.6054 62.8934 71.7159 62.5068L72.0357 61.3928C72.5685 59.5398 73.5982 57.8566 75.0201 56.5141C76.4419 55.1716 78.2053 54.2179 80.131 53.7497L80.7532 53.5746C81.1984 53.465 81.6553 53.4062 82.1145 53.3994C83.3005 53.4052 84.4526 53.7832 85.3982 54.4768C86.3437 55.1704 87.0318 56.1422 87.3593 57.2466C87.5472 57.8818 87.6022 58.5471 87.521 59.2032C87.4398 59.8593 87.224 60.4931 86.8864 61.0673C86.5488 61.6415 86.0961 62.1445 85.555 62.5468C85.0138 62.9491 84.3952 63.2426 83.7353 63.4099L75.0104 65.7249C74.7781 65.7846 74.5387 65.815 74.2984 65.8154V65.8154ZM82.1145 55.7823C81.8611 55.789 81.6092 55.8221 81.3632 55.8812L80.7704 56.0504C79.2584 56.4123 77.8726 57.1566 76.7545 58.2072C75.6365 59.2577 74.8263 60.577 74.4066 62.0302L74.0869 63.1442C74.0741 63.1826 74.0728 63.2237 74.0833 63.2627C74.0937 63.3018 74.1154 63.3371 74.1459 63.3646C74.1737 63.3942 74.2096 63.4155 74.2496 63.4259C74.2895 63.4362 74.3316 63.4352 74.3709 63.423L83.0946 61.1104H83.1106C83.4544 61.0242 83.7769 60.8721 84.059 60.6631C84.3411 60.4541 84.577 60.1923 84.7529 59.8934C84.9288 59.5945 85.041 59.2645 85.0829 58.9228C85.1249 58.5811 85.0956 58.2348 84.997 57.9042C84.8183 57.2955 84.4403 56.7595 83.92 56.3768C83.3998 55.9941 82.7653 55.7855 82.1121 55.7823H82.1145Z" fill="#C4C4C4"/>
<path d="M87.0877 84.0954H79.6122C78.63 84.0941 77.6884 83.7154 76.9941 83.0425C76.2997 82.3695 75.9092 81.4571 75.9082 80.5055V75.604C75.9082 75.288 76.0378 74.9849 76.2684 74.7615C76.499 74.538 76.8118 74.4125 77.1379 74.4125C77.4641 74.4125 77.7769 74.538 78.0075 74.7615C78.2381 74.9849 78.3677 75.288 78.3677 75.604V80.5055C78.368 80.8253 78.4992 81.132 78.7324 81.3582C78.9657 81.5844 79.2821 81.7118 79.6122 81.7125H87.0877C87.4179 81.7118 87.7343 81.5845 87.9678 81.3583C88.2013 81.1321 88.3328 80.8255 88.3334 80.5055V74.1397C88.3334 73.8237 88.463 73.5206 88.6936 73.2972C88.9242 73.0738 89.237 72.9482 89.5631 72.9482C89.8893 72.9482 90.2021 73.0738 90.4327 73.2972C90.6633 73.5206 90.7929 73.8237 90.7929 74.1397V80.5055C90.7916 81.4572 90.4008 82.3696 89.7062 83.0425C89.0116 83.7155 88.07 84.0941 87.0877 84.0954V84.0954Z" fill="#C4C4C4"/>
<path d="M29.3878 84.0954H21.9122C20.9291 84.0954 19.9862 83.7173 19.2905 83.0442C18.5949 82.3711 18.2035 81.4581 18.2021 80.5055V74.1397C18.2021 73.8237 18.3317 73.5206 18.5623 73.2972C18.7929 73.0738 19.1057 72.9482 19.4319 72.9482C19.758 72.9482 20.0708 73.0738 20.3014 73.2972C20.532 73.5206 20.6616 73.8237 20.6616 74.1397V80.5055C20.6619 80.6644 20.6945 80.8216 20.7576 80.9682C20.8206 81.1148 20.9128 81.2479 21.0289 81.36C21.1451 81.472 21.2828 81.5608 21.4344 81.6213C21.586 81.6818 21.7483 81.7128 21.9122 81.7125H29.3927C29.7228 81.7118 30.0391 81.5844 30.2724 81.3582C30.5057 81.132 30.6368 80.8253 30.6372 80.5055V75.604C30.6372 75.288 30.7667 74.9849 30.9974 74.7615C31.228 74.538 31.5408 74.4125 31.8669 74.4125C32.193 74.4125 32.5058 74.538 32.7365 74.7615C32.9671 74.9849 33.0966 75.288 33.0966 75.604V80.5055C33.0957 81.458 32.7045 82.371 32.009 83.0441C31.3136 83.7173 30.3708 84.0954 29.3878 84.0954V84.0954Z" fill="#C4C4C4"/>
<path d="M72.4159 21.771C70.8428 21.7789 69.2988 21.3604 67.9583 20.5629C66.6178 19.7654 65.5341 18.6206 64.8297 17.2578H44.1702C43.4303 18.67 42.2864 19.8458 40.8751 20.6449C39.4639 21.444 37.8451 21.8325 36.212 21.764C34.579 21.6955 33.0008 21.1729 31.6662 20.2587C30.3315 19.3445 29.2967 18.0773 28.6855 16.6085C28.6097 16.4276 28.581 16.2314 28.6018 16.0372C28.6227 15.843 28.6925 15.6568 28.8051 15.4948C28.9177 15.3329 29.0696 15.2003 29.2475 15.1086C29.4254 15.0169 29.6239 14.969 29.8254 14.9691H33.2514L34.7013 12.9186L33.2551 10.867H29.8291C29.6276 10.867 29.4291 10.8191 29.2512 10.7275C29.0733 10.6358 28.9214 10.5031 28.8088 10.3412C28.6962 10.1793 28.6264 9.99304 28.6055 9.79884C28.5847 9.60465 28.6134 9.40846 28.6891 9.22754C29.3024 7.7609 30.3381 6.4961 31.6728 5.58396C33.0075 4.67183 34.5847 4.15085 36.2165 4.08316C37.8483 4.01547 39.4658 4.40392 40.876 5.20219C42.2863 6.00046 43.4298 7.17487 44.1702 8.58536H64.8297C65.5691 7.17334 66.7125 5.99744 68.1232 5.19814C69.5339 4.39884 71.1523 4.00994 72.785 4.07792C74.4178 4.14589 75.9958 4.66786 77.3305 5.58146C78.6653 6.49507 79.7003 7.76166 80.312 9.22993C80.3873 9.41082 80.4156 9.60685 80.3944 9.80081C80.3732 9.99478 80.3032 10.1807 80.1906 10.3424C80.0779 10.504 79.926 10.6364 79.7482 10.7278C79.5704 10.8193 79.3721 10.8671 79.1708 10.867H75.7448L74.2986 12.9186L75.7398 14.9691H79.1659C79.3672 14.969 79.5654 15.0168 79.7432 15.1082C79.921 15.1997 80.073 15.332 80.1856 15.4937C80.2983 15.6553 80.3683 15.8413 80.3895 16.0352C80.4106 16.2292 80.3823 16.4252 80.307 16.6061C79.6775 18.1341 78.5885 19.4436 77.1814 20.3645C75.7743 21.2855 74.114 21.7755 72.4159 21.771ZM43.3758 14.875H65.6339C65.8823 14.875 66.1248 14.9478 66.3296 15.0839C66.5344 15.22 66.6918 15.413 66.7813 15.6375C67.1585 16.5811 67.7814 17.414 68.5894 18.0553C69.3974 18.6965 70.3629 19.1242 71.392 19.2968C72.4211 19.4694 73.4788 19.381 74.4623 19.0402C75.4457 18.6994 76.3213 18.1178 77.004 17.352H75.0942C74.894 17.3519 74.6967 17.3044 74.5197 17.2137C74.3427 17.1229 74.1912 16.9917 74.0785 16.8313L71.7986 13.5894C71.6595 13.3916 71.5851 13.1579 71.5851 12.9186C71.5851 12.6793 71.6595 12.4456 71.7986 12.2478L74.0785 9.00474C74.1912 8.84438 74.3427 8.71313 74.5197 8.62239C74.6967 8.53165 74.894 8.48417 75.0942 8.48408H77.004C76.3208 7.71786 75.4445 7.13608 74.4604 6.79537C73.4762 6.45466 72.4178 6.36663 71.3882 6.53986C70.3585 6.71308 69.3927 7.14166 68.5847 7.78386C67.7767 8.42607 67.1541 9.26001 66.7776 10.2045C66.6884 10.4292 66.531 10.6225 66.3262 10.7588C66.1214 10.8951 65.8787 10.9682 65.6302 10.9682H43.3721C43.1238 10.9682 42.8812 10.8954 42.6764 10.7593C42.4716 10.6232 42.3142 10.4302 42.2248 10.2057C41.8482 9.26088 41.2256 8.4266 40.4175 7.78412C39.6094 7.14165 38.6433 6.71286 37.6133 6.53951C36.5834 6.36615 35.5247 6.45415 34.5403 6.79493C33.5558 7.1357 32.6793 7.71764 31.9959 8.48408H33.9007C34.101 8.48417 34.2982 8.53165 34.4752 8.62239C34.6523 8.71313 34.8037 8.84438 34.9165 9.00474L37.1964 12.2478C37.3355 12.4456 37.4098 12.6793 37.4098 12.9186C37.4098 13.1579 37.3355 13.3916 37.1964 13.5894L34.9165 16.8313C34.8037 16.9917 34.6523 17.1229 34.4752 17.2137C34.2982 17.3044 34.101 17.3519 33.9007 17.352H31.9959C32.6786 18.1195 33.5548 18.7025 34.5393 19.0443C35.5237 19.386 36.5828 19.4748 37.6132 19.302C38.6436 19.1292 39.6102 18.7008 40.4188 18.0583C41.2275 17.4159 41.8505 16.5814 42.2272 15.6363C42.3169 15.4118 42.4747 15.219 42.6797 15.0831C42.8847 14.9472 43.1274 14.8746 43.3758 14.875Z" fill="#C4C4C4"/>
</svg>
